<?xml version="1.0" encoding="UTF-8" standalone="no"?>
<!-- Generator: Adobe Illustrator 17.0.1, SVG Export Plug-In . SVG Version: 6.00 Build 0)  -->

<svg
   version="1.1"
   x="0px"
   y="0px"
   width="86px"
   height="86px"
   viewBox="0 0 86 86"
   enable-background="new 0 0 86 86"
   xml:space="preserve"
   id="svg34"
   sodipodi:docname="harbour-bugger_1.svg"
   inkscape:version="1.2.1 (9c6d41e410, 2022-07-14)"
   xmlns:inkscape="http://www.inkscape.org/namespaces/inkscape"
   xmlns:sodipodi="http://sodipodi.sourceforge.net/DTD/sodipodi-0.dtd"
   xmlns:xlink="http://www.w3.org/1999/xlink"
   xmlns="http://www.w3.org/2000/svg"
   xmlns:svg="http://www.w3.org/2000/svg"><defs
   id="defs38"><linearGradient
     inkscape:collect="always"
     xlink:href="#linearGradient6819"
     id="linearGradient6821"
     x1="0.00040014219"
     y1="479.8266"
     x2="733.88531"
     y2="479.8266"
     gradientUnits="userSpaceOnUse"
     gradientTransform="matrix(0.03971624,-0.03971624,0.03971624,0.03971624,7.2359,36.379842)" /><linearGradient
     inkscape:collect="always"
     id="linearGradient6819"><stop
       style="stop-color:#ffffff;stop-opacity:1;"
       offset="0"
       id="stop6815" /><stop
       style="stop-color:#f3edd1;stop-opacity:1;"
       offset="1"
       id="stop6817" /></linearGradient></defs><sodipodi:namedview
   id="namedview36"
   pagecolor="#ffffff"
   bordercolor="#666666"
   borderopacity="1.0"
   inkscape:showpageshadow="2"
   inkscape:pageopacity="0.0"
   inkscape:pagecheckerboard="0"
   inkscape:deskcolor="#d1d1d1"
   showgrid="false"
   inkscape:zoom="1.9671546"
   inkscape:cx="24.6549"
   inkscape:cy="18.554718"
   inkscape:window-width="1278"
   inkscape:window-height="1128"
   inkscape:window-x="1273"
   inkscape:window-y="0"
   inkscape:window-maximized="0"
   inkscape:current-layer="Layer_1" />
<g
   id="Layer_2"
   display="none">
</g>
<g
   id="Layer_1">
	
		<linearGradient
   id="SVGID_1_"
   gradientUnits="userSpaceOnUse"
   x1="746.1491"
   y1="91.0476"
   x2="832.4243"
   y2="4.6217"
   gradientTransform="matrix(0,0.9756,0.9739,0,-3.5862,-727.0281)">
		<stop
   offset="0.0054"
   style="stop-color:#ffe680;stop-opacity:1;"
   id="stop3" />
		<stop
   offset="1"
   style="stop-color:#ffcc00;stop-opacity:1;"
   id="stop5" />
	</linearGradient>
	<path
   fill="url(#SVGID_1_)"
   d="M 0.5,84.083 V 43 C 0.5,19.527 19.529,0.5 43,0.5 h 41.083 c 0.783,0 1.417,0.634 1.417,1.417 V 43 C 85.5,66.473 66.471,85.5 43,85.5 H 1.917 C 1.134,85.5 0.5,84.866 0.5,84.083 Z"
   id="path8"
   style="fill:url(#SVGID_1_)" />
	
		<linearGradient
   id="SVGID_2_"
   gradientUnits="userSpaceOnUse"
   x1="312.5327"
   y1="9.6047"
   x2="249.6547"
   y2="72.4827"
   gradientTransform="matrix(0,-1,-1,0,84.05,324.1)">
		<stop
   offset="0.0054"
   style="stop-color:#51EAEE"
   id="stop10" />
		<stop
   offset="1"
   style="stop-color:#00B4E6"
   id="stop12" />
	</linearGradient>
	<path
   fill="url(#SVGID_2_)"
   d="m 73.023,10.975 c 1.105,0 2.002,0.895 2.002,2 0,0 0,29.435 0,30.025 0,17.687 -14.299,32.025 -32,32.025 -0.345,0 -30.048,0 -30.048,0 -1.105,0 -2.002,-0.895 -2.002,-2 0,0 0,-29.412 0,-30.025 0,-17.686 14.349,-32.025 32.05,-32.025 1.472,0 29.998,0 29.998,0 z"
   id="path15"
   style="fill:url(#SVGID_2_)" />
	<g
   id="g24"
   transform="matrix(-1,0,0,1,86,0)">
		<linearGradient
   id="SVGID_3_"
   gradientUnits="userSpaceOnUse"
   x1="74.432701"
   y1="74.445297"
   x2="11.5547"
   y2="11.5673">
			<stop
   offset="0.0054"
   style="stop-color:#d4550f;stop-opacity:1;"
   id="stop17" />
			<stop
   offset="1"
   style="stop-color:#ff9955;stop-opacity:1;"
   id="stop19" />
		</linearGradient>
		<path
   fill="url(#SVGID_3_)"
   d="m 12.977,10.975 c -1.105,0 -2.002,0.895 -2.002,2 0,0 0,29.435 0,30.025 0,17.687 14.299,32.025 32,32.025 0.345,0 30.048,0 30.048,0 1.105,0 2.002,-0.895 2.002,-2 0,0 0,-29.412 0,-30.025 0,-17.686 -14.349,-32.025 -32.05,-32.025 -1.472,0 -29.998,0 -29.998,0 z"
   id="path22"
   style="fill:url(#SVGID_3_)" />
	</g>
	<linearGradient
   id="SVGID_4_"
   gradientUnits="userSpaceOnUse"
   x1="19.5861"
   y1="20.0223"
   x2="58.9658"
   y2="59.402"
   gradientTransform="translate(-86.165062,52.35989)">
		<stop
   offset="0"
   style="stop-color:#FFFFFF"
   id="stop26" />
		<stop
   offset="1"
   style="stop-color:#F3EDD1"
   id="stop28" />
	</linearGradient>
	
<path
   d="m 23.128442,32.920959 c 0.155169,4.355083 4.336539,7.377289 4.336539,7.377289 0,0 4.68524,0.398433 8.89643,-3.812758 4.211156,-4.211154 3.813994,-8.897666 3.813994,-8.897666 0,0 -2.982451,-4.124304 -7.29536,-4.326576 0.569693,-2.001932 0.291672,-3.79417 -0.724818,-4.185054 -1.148073,-0.438115 -2.785106,1.057436 -3.662594,3.347327 -0.326385,0.85016 -0.495227,1.684235 -0.531208,2.427649 -0.583352,0.404624 -1.16789,0.867563 -1.76741,1.467083 -0.55845,0.558451 -1.001516,1.108288 -1.393799,1.651952 -0.731017,0.03599 -1.546433,0.206015 -2.378013,0.523744 -2.287418,0.879945 -3.785472,2.519478 -3.347319,3.662588 0.381073,0.996521 2.103765,1.286888 4.053558,0.764422 z m 32.342677,0.480327 c -0.397153,0.258158 -0.749639,0.531206 -1.082258,0.804255 -0.0844,-0.0844 -0.148951,-0.178715 -0.235807,-0.265572 -1.334228,-1.334227 -2.796188,-2.418879 -4.311725,-3.323732 0.708705,-0.597012 1.390072,-1.578727 1.858053,-2.793682 0.877489,-2.289876 0.660283,-4.502828 -0.480328,-4.93848 -1.145581,-0.440608 -2.785106,1.057452 -3.662594,3.347328 -0.409594,1.069834 -0.56966,2.116122 -0.520046,2.974981 -1.032622,-0.417013 -2.076406,-0.765765 -3.118955,-0.98921 -0.199851,2.198053 -0.976742,5.958667 -3.812758,9.457394 l 12.77993,12.779929 c 0,0 1.260954,1.28089 -0.0012,2.543073 -1.260995,1.260995 -2.541843,0 -2.541843,0 L 37.566549,40.22256 c -3.501189,2.838407 -7.265573,3.614141 -9.458623,3.814 0.215934,1.000329 0.541134,2.000696 0.929597,2.989916 -0.830306,-0.01366 -1.805855,0.150169 -2.802494,0.531198 -2.287419,0.879959 -3.78548,2.519484 -3.347327,3.662594 0.43688,1.144311 2.648596,1.357823 4.938479,0.480328 1.139462,-0.436801 2.078869,-1.061173 2.683424,-1.722612 0.903468,1.511605 1.980852,2.971297 3.310072,4.300519 0.0869,0.0869 0.183679,0.153913 0.275572,0.240747 -0.237086,0.296617 -0.474137,0.613131 -0.696268,0.95442 -1.637063,2.490955 -2.150866,5.139516 -1.153044,5.904053 1.002837,0.769463 3.137587,-0.635462 4.777154,-3.13385 0.214698,-0.323929 0.409596,-0.657819 0.58458,-0.986669 1.984421,1.257139 4.070758,2.179315 6.172024,2.669526 -0.237064,0.718592 -0.37854,1.57002 -0.373575,2.488463 -3.5e-5,2.531953 1.025204,4.584729 2.29112,4.584807 1.265951,-4.2e-5 2.289875,-2.051589 2.292374,-4.580991 -0.0012,-0.743451 -0.09555,-1.433519 -0.251961,-2.051584 3.421803,-0.03607 6.600328,-1.189064 8.963451,-3.552187 2.396593,-2.396592 3.555834,-5.640931 3.558297,-9.113643 0.642889,0.176188 1.372669,0.280474 2.157101,0.280512 2.529411,0.0025 4.584729,-1.025189 4.584729,-2.291111 10e-7,-1.265909 -2.050348,-2.288649 -4.582265,-2.288648 -0.980478,-0.0025 -1.88406,0.156406 -2.6362,0.417021 -0.491496,-2.090068 -1.419858,-4.170209 -2.675839,-6.146087 0.374831,-0.196118 0.75711,-0.409595 1.136832,-0.655321 2.497074,-1.638253 3.899637,-3.775524 3.135078,-4.778384 -0.766956,-0.990403 -3.41551,-0.476591 -5.907716,1.161706 z"
   id="path5577"
   style="fill:url(#linearGradient6821);fill-opacity:1;stroke-width:0.0561673" /></g>
</svg>
