<?xml version="1.0" encoding="UTF-8" standalone="no"?>
<!-- Generator: Adobe Illustrator 17.0.1, SVG Export Plug-In . SVG Version: 6.00 Build 0)  -->

<svg
   version="1.1"
   id="Layer_1"
   x="0px"
   y="0px"
   width="64px"
   height="64px"
   viewBox="0 0 64 64"
   style="enable-background:new 0 0 64 64;"
   xml:space="preserve"
   sodipodi:docname="icon-m-new-bug.svg"
   inkscape:version="1.3.2 (091e20e, 2023-11-25, custom)"
   xmlns:inkscape="http://www.inkscape.org/namespaces/inkscape"
   xmlns:sodipodi="http://sodipodi.sourceforge.net/DTD/sodipodi-0.dtd"
   xmlns="http://www.w3.org/2000/svg"
   xmlns:svg="http://www.w3.org/2000/svg"><defs
   id="defs3" /><sodipodi:namedview
   id="namedview3"
   pagecolor="#ffffff"
   bordercolor="#000000"
   borderopacity="0.25"
   inkscape:showpageshadow="2"
   inkscape:pageopacity="0.0"
   inkscape:pagecheckerboard="true"
   inkscape:deskcolor="#d1d1d1"
   inkscape:zoom="5.1983397"
   inkscape:cx="35.684471"
   inkscape:cy="35.395917"
   inkscape:window-width="1350"
   inkscape:window-height="1160"
   inkscape:window-x="358"
   inkscape:window-y="36"
   inkscape:window-maximized="0"
   inkscape:current-layer="Layer_1" />
<g
   id="icon-m-alarm"
   inkscape:label="icon-m-nrw-bug">
	<rect
   id="icon-m-alarm_1_"
   style="opacity:0;fill:#FFFFFF;"
   width="64"
   height="64"
   inkscape:label="icon-m-new-bug_1_" />
	
	
<g
   id="g4"
   transform="matrix(0.74418609,0,0,0.74418609,9.9767107,9.2325591)"
   style="enable-background:new 0 0 64 64"><path
     style="display:inline;opacity:0.6;fill:none;fill-opacity:1;stroke:#ffffff;stroke-width:2.08372;stroke-linecap:round;stroke-linejoin:round;stroke-dasharray:none;stroke-opacity:1"
     d="m 16.57737,47.509124 c 0.350104,-0.538614 0.720454,-1.01664 1.090811,-1.467704 -0.114299,-0.11428 -0.242461,-0.201963 -0.360357,-0.319861 -1.809533,-1.809484 -3.28064,-3.792169 -4.50781,-5.847547 -0.809704,0.961169 -2.141189,1.885193 -3.7889961,2.519867 C 5.9053768,43.583915 2.9040525,43.289335 2.313176,41.7425 1.7156384,40.188893 3.7473771,37.965385 6.8530182,36.775348 8.3039921,36.219815 9.7230184,36.002739 10.887856,36.070036 10.3223,34.669649 9.8492776,33.254063 9.5462258,31.840168 12.527354,31.569017 17.627737,30.515533 22.372882,26.669384 l 17.332871,17.331932 c 0,0 1.73721,1.710105 3.449042,-0.0016 1.71024,-1.710088 0,-3.447207 0,-3.447207 L 25.828634,23.22674 c 3.849578,-4.748219 4.901688,-9.853471 5.172758,-12.82763 1.356695,0.292685 2.713447,0.733854 4.055079,1.260669 -0.02057,-1.126016 0.203497,-2.4490222 0.720457,-3.8006755 1.193439,-3.102158 3.417047,-5.1337992 4.967407,-4.5396183 1.551963,0.5925305 1.841575,3.5920112 0.651473,6.6975028 -0.592415,1.545359 -1.439237,2.819355 -2.336338,3.639225 2.050149,1.225304 4.029866,2.686399 5.832631,4.489076 0.117891,0.117874 0.208639,0.249103 0.326529,0.373661 0.402392,-0.321381 0.831586,-0.642963 1.294468,-0.944258 3.378341,-2.220168 6.9705,-2.916965 8.007383,-1.563714 1.043607,1.36001 -0.861836,4.255141 -4.250277,6.478685 -0.439298,0.291143 -0.892178,0.555478 -1.338197,0.792804 1.705016,2.691277 2.955709,5.520726 3.620559,8.370441 0.974596,-0.321377 2.129331,-0.513397 3.375002,-0.506418 3.433965,-4.7e-5 6.218056,1.390336 6.218159,3.107159 -5.6e-5,1.716882 -2.782444,3.105483 -6.212982,3.108877 -1.008328,-0.0016 -1.944232,-0.129791 -2.782494,-0.341891 -0.05123,4.640598 -1.612638,8.951238 -4.817674,12.156117 -3.250349,3.250226 -7.650525,4.82234 -12.360401,4.825686 0.23888,0.871886 0.380347,1.861609 0.380347,2.925466 0.0029,3.430352 -1.390427,6.217731 -3.107333,6.217731 -1.716903,0 -3.103993,-2.780665 -3.103993,-6.214412 -0.0029,-1.329725 0.212214,-2.555116 0.565541,-3.5752 -2.834618,-0.666543 -5.655823,-1.925589 -8.335647,-3.628914 -0.266045,0.508466 -0.555504,1.02678 -0.888748,1.541761 -2.221924,3.386482 -5.120629,5.288639 -6.480762,4.251765 -1.343224,-1.040169 -0.646334,-4.632101 1.575581,-8.012008 z"
     id="path4"
     inkscape:label="bugbody" /><path
     style="display:inline;fill:none;fill-opacity:1;stroke:#ffffff;stroke-width:2.08372;stroke-linecap:round;stroke-linejoin:round;stroke-dasharray:none;stroke-opacity:1"
     d="m 15.925951,3.6464278 c 5.906602,0.210674 10.00546,5.8811852 10.00546,5.8811852 0,0 0.540384,6.35402 -5.171067,12.065175 -5.711395,5.711102 -12.0674949,5.172487 -12.0674949,5.172487 0,0 -5.5935971,-4.044718 -5.8679443,-9.893855 -2.71514566,0.772592 -5.1458913,0.395712 -5.676033,-0.982974 -0.5941498,-1.556992 1.4341588,-3.77715 4.5398514,-4.967151 C 2.8417697,10.478429 3.9729768,10.249673 4.9812578,10.200878 5.5300009,9.4097176 6.1578845,8.6169678 6.970975,7.8039224 7.7283933,7.0465438 8.474129,6.4457091 9.2114485,5.9136557 9.2626752,4.9222811 9.4908172,3.8164022 9.9217624,2.6886331 11.115196,-0.41351208 13.338863,-2.4451587 14.88917,-1.8509348 c 1.351575,0.5167847 1.745358,2.853097 1.036781,5.4973626 z"
     id="path5577"
     inkscape:label="bughead" /></g></g>
</svg>
