<?xml version="1.0" encoding="UTF-8" standalone="no"?>
<!-- Created with Inkscape (http://www.inkscape.org/) -->

<svg
   width="65mm"
   height="65mm"
   viewBox="0 0 65 65"
   version="1.1"
   id="svg1"
   inkscape:version="1.3.2 (091e20e, 2023-11-25, custom)"
   sodipodi:docname="harbour-bugger_bg2.svg"
   xmlns:inkscape="http://www.inkscape.org/namespaces/inkscape"
   xmlns:sodipodi="http://sodipodi.sourceforge.net/DTD/sodipodi-0.dtd"
   xmlns="http://www.w3.org/2000/svg"
   xmlns:svg="http://www.w3.org/2000/svg">
  <sodipodi:namedview
     id="namedview1"
     pagecolor="#ffffff"
     bordercolor="#000000"
     borderopacity="0.25"
     inkscape:showpageshadow="2"
     inkscape:pageopacity="0.0"
     inkscape:pagecheckerboard="0"
     inkscape:deskcolor="#d1d1d1"
     inkscape:document-units="mm"
     inkscape:zoom="0.83829265"
     inkscape:cx="103.18592"
     inkscape:cy="295.83941"
     inkscape:window-width="1350"
     inkscape:window-height="1160"
     inkscape:window-x="1071"
     inkscape:window-y="42"
     inkscape:window-maximized="0"
     inkscape:current-layer="layer1" />
  <defs
     id="defs1" />
  <g
     inkscape:label="Layer 1"
     inkscape:groupmode="layer"
     id="layer1">
    <path
       d="m 45.93867,6.0061314 c -5.80678,0.20711 -9.83637,5.7817896 -9.83637,5.7817896 0,0 -0.53125,6.24664 5.08368,11.86128 5.61487,5.61459 11.86355,5.08508 11.86355,5.08508 0,0 5.49907,-3.97637 5.76878,-9.72666 2.66926,0.75954 5.05893,0.38902 5.58011,-0.96636 0.58411,-1.53068 -1.40992,-3.71332 -4.46313,-4.88321 -1.13356,-0.43538 -2.24565,-0.66027 -3.23689,-0.70824 -0.53947,-0.77779 -1.15674,-1.55714 -1.95609,-2.35645 C 53.99769,9.3487814 53.26456,8.7581014 52.5397,8.2350414 52.4893,7.2604214 52.26505,6.1732314 51.84139,5.0645214 50.66812,2.0148014 48.48204,0.01749141 46.95793,0.60167141 45.6292,1.1097214 45.24207,3.4065514 45.93867,6.0061314 Z M 45.29826,49.127551 c -0.34419,-0.52951 -0.70828,-0.99946 -1.07238,-1.4429 0.11238,-0.11238 0.23837,-0.19855 0.35427,-0.31445 1.77895,-1.77891 3.2252,-3.72809 4.43163,-5.74872 0.79602,0.94493 2.105,1.85333 3.72496,2.47728 3.05316,1.16993 6.00376,0.88033 6.58465,-0.64037 0.58744,-1.52736 -1.40996,-3.71328 -4.46312,-4.88321 -1.42645,-0.54614 -2.8215,-0.75955 -3.96665,-0.69339 0.556,-1.37673 1.02103,-2.76839 1.31896,-4.15838 -2.93075,-0.26657 -7.94494,-1.30226 -12.60989,-5.08341 l -17.03995,17.03903 c 0,0 -1.70785,1.6812 -3.39075,-0.002 -1.68134,-1.6812 0,-3.38896 0,-3.38896 l 17.03335,-17.03253 c -3.78452,-4.66798 -4.81885,-9.68695 -5.08534,-12.61085 -1.33377,0.28774 -2.66759,0.72145 -3.98655,1.23937 0.0202,-1.10699 -0.20006,-2.40764 -0.70828,-3.73645 -1.17327,-3.0497296 -3.3593,-5.0470396 -4.88346,-4.4628996 -1.52573,0.58252 -1.81045,3.53131 -0.64046,6.5843196 0.5824,1.51924 1.41491,2.77171 2.29685,3.57772 -2.0155,1.2046 -3.96176,2.641 -5.73406,4.41321 -0.1159,0.1159 -0.2051,0.2449 -0.32101,0.36735 -0.39559,-0.31595 -0.81753,-0.6321 -1.27259,-0.9283 -3.32125,-2.18265 -6.8527001,-2.86767 -7.8720601,-1.53729 -1.02597,1.33703 0.84727,4.18323 4.1784501,6.3692 0.43187,0.28622 0.8771,0.54609 1.31558,0.7794 -1.6762,2.64579 -2.90576,5.42743 -3.5593701,8.22898 -0.95813,-0.31595 -2.09335,-0.50471 -3.31797,-0.49786 -3.37593,-5e-5 -6.11296995,1.36686 -6.11306995,3.05466 5e-5,1.68786 2.73541995,3.053 6.10797995,3.05633 0.99129,-0.002 1.91138,-0.12749 2.73547,-0.33611 0.0504,4.56217 1.5853901,8.79997 4.7362601,11.95068 3.19542,3.1953 7.52123,4.74085 12.15151,4.74413 -0.23484,0.85715 -0.37392,1.83016 -0.37392,2.87603 -0.003,3.37238 1.36693,6.11265 3.05482,6.11265 1.68789,0 3.05154,-2.73367 3.05154,-6.10938 0.003,-1.30725 -0.20863,-2.51195 -0.55599,-3.51478 2.78672,-0.65529 5.56025,-1.89305 8.19478,-3.5676 0.26155,0.49988 0.54612,1.00944 0.87373,1.51572 2.18437,3.32924 5.03409,5.19926 6.37124,4.1799 1.32052,-1.02259 0.63541,-4.55381 -1.54896,-7.8766 z"
       id="path5577"
       style="fill:#ffffff;fill-opacity:1;stroke-width:0.0748877" />
  </g>
</svg>
